<?xml version="1.0" encoding="UTF-8"?>
<svg id="Layer_1" xmlns="http://www.w3.org/2000/svg" xmlns:xlink="http://www.w3.org/1999/xlink" version="1.1" viewBox="0 0 59.6 39.06">
  <!-- Generator: Adobe Illustrator 29.4.0, SVG Export Plug-In . SVG Version: 2.1.0 Build 152)  -->
  <defs>
    <style>
      .st0 {
        fill: #521425;
        opacity: .2;
      }

      .st0, .st1, .st2, .st3, .st4, .st5 {
        isolation: isolate;
      }

      .st6 {
        fill: #acdfeb;
      }

      .st1 {
        fill: #d3e5b0;
        stroke-width: .5px;
      }

      .st1, .st2, .st7, .st8, .st9, .st10, .st11, .st12, .st13, .st14, .st4, .st15, .st16, .st17, .st18, .st19, .st20, .st21, .st22, .st23, .st24, .st25, .st26, .st27, .st28, .st29, .st5 {
        stroke: #231f20;
        stroke-miterlimit: 10;
      }

      .st2 {
        fill: url(#linear-gradient5);
        opacity: .5;
      }

      .st2, .st7, .st12, .st4, .st15, .st16, .st29, .st5 {
        stroke-width: .43px;
      }

      .st7, .st8, .st10, .st30 {
        fill: #d7e8b3;
      }

      .st31 {
        fill: url(#linear-gradient);
      }

      .st8, .st11, .st17, .st18, .st19, .st26, .st27 {
        stroke-width: .65px;
      }

      .st32 {
        fill: #6c1f5c;
      }

      .st9, .st10, .st20, .st28 {
        stroke-width: .22px;
      }

      .st9, .st11 {
        fill: none;
      }

      .st3 {
        opacity: .63;
      }

      .st3, .st12, .st33 {
        fill: #b5c49d;
      }

      .st34 {
        fill: #fbd0d8;
      }

      .st35 {
        fill: #a84298;
      }

      .st36 {
        fill: #dfb3d3;
      }

      .st37 {
        fill: #768167;
      }

      .st38 {
        fill: #fff;
      }

      .st13 {
        fill: url(#linear-gradient11);
      }

      .st13, .st14, .st21, .st22, .st23, .st24, .st25 {
        stroke-width: .87px;
      }

      .st14 {
        fill: url(#linear-gradient10);
      }

      .st4 {
        fill: url(#linear-gradient14);
        opacity: .54;
      }

      .st15 {
        fill: url(#linear-gradient13);
      }

      .st16 {
        fill: url(#linear-gradient17);
      }

      .st17 {
        fill: url(#linear-gradient12);
      }

      .st18 {
        fill: url(#linear-gradient15);
      }

      .st19 {
        fill: url(#linear-gradient16);
      }

      .st20 {
        fill: #bf63a6;
      }

      .st21 {
        fill: url(#linear-gradient2);
      }

      .st22 {
        fill: url(#linear-gradient4);
      }

      .st23 {
        fill: url(#linear-gradient3);
      }

      .st24 {
        fill: url(#linear-gradient8);
      }

      .st25 {
        fill: url(#linear-gradient9);
      }

      .st26 {
        fill: url(#linear-gradient7);
      }

      .st27 {
        fill: url(#linear-gradient1);
      }

      .st39 {
        fill: #dab0d1;
      }

      .st40 {
        fill: #8a3879;
      }

      .st28, .st29 {
        fill: #090909;
      }

      .st5 {
        fill: url(#linear-gradient6);
        opacity: .76;
      }
    </style>
    <linearGradient id="linear-gradient" x1="-273.83" y1="916.47" x2="-241.13" y2="916.47" gradientTransform="translate(-287.89 -932.79) rotate(178.37) scale(1.11 -1.05)" gradientUnits="userSpaceOnUse">
      <stop offset="0" stop-color="#43c6f2"/>
      <stop offset="1" stop-color="#ec2385"/>
    </linearGradient>
    <linearGradient id="linear-gradient1" x1="-293.36" y1="951.04" x2="-289.79" y2="951.04" gradientTransform="translate(-249.92 -932.2) rotate(-180) scale(1 -1)" gradientUnits="userSpaceOnUse">
      <stop offset="0" stop-color="#43c6f2"/>
      <stop offset="1" stop-color="#ec2385"/>
    </linearGradient>
    <linearGradient id="linear-gradient2" x1="-292.22" y1="956.07" x2="-287.54" y2="956.07" gradientTransform="translate(-249.92 -932.2) rotate(-180) scale(1 -1)" gradientUnits="userSpaceOnUse">
      <stop offset="0" stop-color="#43c6f2"/>
      <stop offset="1" stop-color="#ec2385"/>
    </linearGradient>
    <linearGradient id="linear-gradient3" x1="-289.58" y1="959.78" x2="-283.32" y2="959.78" gradientTransform="translate(-249.92 -932.2) rotate(-180) scale(1 -1)" gradientUnits="userSpaceOnUse">
      <stop offset="0" stop-color="#43c6f2"/>
      <stop offset="1" stop-color="#ec2385"/>
    </linearGradient>
    <linearGradient id="linear-gradient4" x1="-284.47" y1="961.09" x2="-279.96" y2="961.09" gradientTransform="translate(-249.92 -932.2) rotate(-180) scale(1 -1)" gradientUnits="userSpaceOnUse">
      <stop offset="0" stop-color="#43c6f2"/>
      <stop offset="1" stop-color="#ec2385"/>
    </linearGradient>
    <linearGradient id="linear-gradient5" x1="-290.78" y1="948.11" x2="-283.18" y2="948.11" gradientTransform="translate(-249.92 -932.2) rotate(-180) scale(1 -1)" gradientUnits="userSpaceOnUse">
      <stop offset="0" stop-color="#43c6f2"/>
      <stop offset="1" stop-color="#ec2385"/>
    </linearGradient>
    <linearGradient id="linear-gradient6" x1="-284.04" y1="945.45" x2="-274.76" y2="945.45" gradientTransform="translate(-249.92 -932.2) rotate(-180) scale(1 -1)" gradientUnits="userSpaceOnUse">
      <stop offset="0" stop-color="#43c6f2"/>
      <stop offset="1" stop-color="#ec2385"/>
    </linearGradient>
    <linearGradient id="linear-gradient7" x1="-289.89" y1="952.93" x2="-280.15" y2="953.21" gradientTransform="translate(-249.92 -932.2) rotate(-180) scale(1 -1)" gradientUnits="userSpaceOnUse">
      <stop offset="0" stop-color="#43c6f2"/>
      <stop offset="1" stop-color="#ec2385"/>
    </linearGradient>
    <linearGradient id="linear-gradient8" x1="-569.19" y1="907" x2="-562.08" y2="907" gradientTransform="translate(-123.97 -953.66) rotate(-164.58) scale(.72 -1)" gradientUnits="userSpaceOnUse">
      <stop offset="0" stop-color="#43c6f2"/>
      <stop offset="1" stop-color="#ec2385"/>
    </linearGradient>
    <linearGradient id="linear-gradient9" x1="-672.3" y1="863.85" x2="-665.02" y2="863.85" gradientTransform="translate(-90.38 -954.24) rotate(-157.44) scale(.72 -1)" gradientUnits="userSpaceOnUse">
      <stop offset="0" stop-color="#43c6f2"/>
      <stop offset="1" stop-color="#ec2385"/>
    </linearGradient>
    <linearGradient id="linear-gradient10" x1="-755.42" y1="874.62" x2="-748.07" y2="874.62" gradientTransform="translate(-77.48 -935.33) rotate(-154.86) scale(.66 -.95)" gradientUnits="userSpaceOnUse">
      <stop offset="0" stop-color="#43c6f2"/>
      <stop offset="1" stop-color="#ec2385"/>
    </linearGradient>
    <linearGradient id="linear-gradient11" x1="-833.58" y1="889.4" x2="-826.2" y2="889.4" gradientTransform="translate(-78.21 -930.41) rotate(-154.86) scale(.59 -.93)" gradientUnits="userSpaceOnUse">
      <stop offset="0" stop-color="#43c6f2"/>
      <stop offset="1" stop-color="#ec2385"/>
    </linearGradient>
    <linearGradient id="linear-gradient12" x1="-1562.98" y1="716.92" x2="-1554.98" y2="716.92" gradientTransform="translate(-3.19 -892) rotate(-138.11) scale(.4 -.94)" gradientUnits="userSpaceOnUse">
      <stop offset="0" stop-color="#43c6f2"/>
      <stop offset="1" stop-color="#ec2385"/>
    </linearGradient>
    <linearGradient id="linear-gradient13" x1="-1899.68" y1="471.33" x2="-1889.63" y2="471.33" gradientTransform="translate(14.22 -791.41) rotate(-117.53) scale(.38 -.81)" gradientUnits="userSpaceOnUse">
      <stop offset="0" stop-color="#43c6f2"/>
      <stop offset="1" stop-color="#ec2385"/>
    </linearGradient>
    <linearGradient id="linear-gradient14" x1="-68.43" y1="942.88" x2="-58.87" y2="942.88" gradientTransform="translate(-306.71 -873.25) rotate(163.58) scale(1 -1)" gradientUnits="userSpaceOnUse">
      <stop offset="0" stop-color="#43c6f2"/>
      <stop offset="1" stop-color="#ec2385"/>
    </linearGradient>
    <linearGradient id="linear-gradient15" x1="-281.3" y1="952.93" x2="-271.07" y2="952.93" gradientTransform="translate(-249.92 -932.2) rotate(-180) scale(1 -1)" gradientUnits="userSpaceOnUse">
      <stop offset="0" stop-color="#43c6f2"/>
      <stop offset="1" stop-color="#ec2385"/>
    </linearGradient>
    <linearGradient id="linear-gradient16" x1="-271.73" y1="952.72" x2="-262.64" y2="952.72" gradientTransform="translate(-249.92 -932.2) rotate(-180) scale(1 -1)" gradientUnits="userSpaceOnUse">
      <stop offset="0" stop-color="#43c6f2"/>
      <stop offset="1" stop-color="#ec2385"/>
    </linearGradient>
    <linearGradient id="linear-gradient17" x1="-266.21" y1="946.42" x2="-260.89" y2="946.42" gradientTransform="translate(-249.92 -932.2) rotate(-180) scale(1 -1)" gradientUnits="userSpaceOnUse">
      <stop offset="0" stop-color="#43c6f2"/>
      <stop offset="1" stop-color="#ec2385"/>
    </linearGradient>
  </defs>
  <polygon class="st1" points="38.88 27.62 38.68 28.43 39.43 30.36 42.02 31.61 41.29 32.72 42.44 33.62 40.21 34.1 40.65 35.59 38.64 35.12 38.1 35.96 37 34.1 36.25 32.14 34.64 30.08 34.64 27.62 35.94 26.82 37.69 26.82 38.88 27.62"/>
  <path class="st7" d="M48.61,27.46l-1.63-.75-.38-.77c-.2-.4-.6-.72-1.12-.87l-.93-.27c-.19-.06-.4-.08-.6-.08h-.59c-.6,0-1.15.28-1.41.72h0v.59c0,.43.25.84.68,1.11l.41.26c.26.16.45.38.56.62l.24.54.49,1.17.7-.65,1.44.36-.2-.95,1.66.16-.64-.68,1.3-.51h.02Z"/>
  <polygon class="st33" points="45.6 25.3 44.82 26.46 44.16 27.43 42.64 27.14 42.23 25.97 43.36 25.17 43.96 24.73 45.6 25.3"/>
  <polygon class="st37" points="45.09 28.89 44.5 27.72 43.72 27.05 42.97 26.31 42.87 26.11 42.23 26.63 42.64 27.14 43.44 27.61 44.06 28.56 44.46 29.42 45.09 28.89"/>
  <path class="st12" d="M13.1,29.01l.96-.53.38-.55c.2-.28.54-.46.92-.48l.7-.04c.15,0,.3,0,.44.04l.42.11c.43.11.79.44.91.83h0l-.08.47c-.06.34-.3.62-.64.76l-.33.13c-.21.08-.38.22-.49.39l-.25.38-.52.84-.41-.65-.98.29.17-.98-.99.23.33-.83-.54-.41h0Z"/>
  <path class="st7" d="M8.57,22.99l-2.38,1.06c-.4.34-.83.6-1.26.8l-.82.37c-.36.16-.74.25-1.11.25h-.3l1,.5c1.16.58,2.4.62,3.58.1l.88-.39,1.74-1.1v-2.27l-1.34.67h.01Z"/>
  <g>
    <path class="st30" d="M55.57,21.33s-.17.13-.31.23h0c-1.35.93-2.86,1.6-4.46,1.99l-.27.07c-1.13.27-2.29.41-3.45.42h0c-.81,0-2.29.55-3.29,1.2l-.63.41c-1,.66-2.64,1.7-3.66,2.32l-2.74,1.66c-1.02.62-2.61,1.15-3.53,1.17s-2.63-.19-3.78-.48l-4.25-1.08c-1.16-.29-1.28-1.05-.27-1.69l4.24-2.68c1.01-.64,2.64-1.71,3.63-2.38l1.41-.96c.99-.67,2.35-2.02,3.04-2.99h0c.69-.99,2.19-1.67,3.35-1.53s2.39-.67,2.75-1.81l.15-.48c.36-1.14,1.59-2.33,2.74-2.64l1.89-.51c1.15-.31,3-.21,4.11.22l1.12.44c1.32.52,2.38,1.54,2.94,2.84h0c.32.74.52,1.53.61,2.33h0c.07.67,0,1.35-.22,1.99-.18.5-.43.99-.72,1.48h0c-.18.23-.34.44-.37.47h-.03Z"/>
    <path class="st11" d="M55.57,21.33s-.17.13-.31.23h0c-1.35.93-2.86,1.6-4.46,1.99l-.27.07c-1.13.27-2.29.41-3.45.42h0c-.81,0-2.29.55-3.29,1.2l-.63.41c-1,.66-2.64,1.7-3.66,2.32l-2.74,1.66c-1.02.62-2.61,1.15-3.53,1.17s-2.63-.19-3.78-.48l-4.25-1.08c-1.16-.29-1.28-1.05-.27-1.69l4.24-2.68c1.01-.64,2.64-1.71,3.63-2.38l1.41-.96c.99-.67,2.35-2.02,3.04-2.99h0c.69-.99,2.19-1.67,3.35-1.53s2.39-.67,2.75-1.81l.15-.48c.36-1.14,1.59-2.33,2.74-2.64l1.89-.51c1.15-.31,3-.21,4.11.22l1.12.44c1.32.52,2.38,1.54,2.94,2.84h0c.32.74.52,1.53.61,2.33h0c.07.67,0,1.35-.22,1.99-.18.5-.43.99-.72,1.48h0c-.18.23-.34.44-.37.47h-.03Z"/>
  </g>
  <path class="st8" d="M7.32,28.7l1.47-.99.6-.98c.31-.51.83-.84,1.42-.9l1.06-.12c.22-.02.45,0,.67.05l.63.16c.65.17,1.18.71,1.34,1.39h0l-.15.83c-.11.6-.47,1.11-1,1.37l-.51.25c-.32.16-.58.4-.76.72l-.39.68-.82,1.5-.6-1.1-1.5.57.3-1.73-1.51.47.54-1.48-.81-.68h.02Z"/>
  <g>
    <path class="st31" d="M42.36,16.7c-.77-.48-2.27-1.31-3.33-1.86l-.21-.11c-3-1.77-1.76-.87-3.99-2.39l-1.66-.6c-.52-.23-1.47-.26-2.01-.42-2.27-.64-4.67-.92-7.08-.83-.45.02-.9.03-1.32.05-1.5.05-2.99.26-4.44.61h0c-2.73.66-5.08,2.15-6.6,4.16l-1,1.33c-1,1.33-1.82,2.75-2.44,4.22l-.75,1.78c-.46,1.1-.46,2.47,0,3.05.07.08.14.17.21.25.88,1.03,2.15,1.8,3.6,2.2.36.1,1.17.31,1.79.47s2.08.49,3.25.74l4.11.87c.47.1.95.18,1.43.25l5.59.73c2.18.29,4.42.22,6.59-.2l1.26-.24c2.22-.43,1.43-.37,3.21-1.57l1.81-2.28c.74-.93,1.6-2.64,1.91-3.79l.93-3.46c.31-1.15-.07-2.48-.84-2.96h-.02Z"/>
    <path class="st11" d="M42.36,16.7c-.77-.48-2.27-1.31-3.33-1.86l-.21-.11c-3-1.77-1.76-.87-3.99-2.39l-1.66-.6c-.52-.23-1.47-.26-2.01-.42-2.27-.64-4.67-.92-7.08-.83-.45.02-.9.03-1.32.05-1.5.05-2.99.26-4.44.61h0c-2.73.66-5.08,2.15-6.6,4.16l-1,1.33c-1,1.33-1.82,2.75-2.44,4.22l-.75,1.78c-.46,1.1-.46,2.47,0,3.05.07.08.14.17.21.25.88,1.03,2.15,1.8,3.6,2.2.36.1,1.17.31,1.79.47s2.08.49,3.25.74l4.11.87c.47.1.95.18,1.43.25l5.59.73c2.18.29,4.42.22,6.59-.2l1.26-.24c2.22-.43,1.43-.37,3.21-1.57l1.81-2.28c.74-.93,1.6-2.64,1.91-3.79l.93-3.46c.31-1.15-.07-2.48-.84-2.96h-.02Z"/>
  </g>
  <polygon class="st27" points="41.07 16.04 40.46 17.47 39.87 19.6 40.16 20.52 42.51 21.65 43.44 18.74 42.68 17.28 41.07 16.04"/>
  <polygon class="st21" points="39.14 20.77 38.8 21.65 38.26 22.57 37.62 23.99 37.97 25.47 39.67 27.22 41.72 25.21 42.3 21.65 39.96 20.52 39.14 20.77"/>
  <path class="st23" d="M37.63,24.96h.2l1.83,1.93-1.11,2.29-2.3,1.03h-1.95l-.9-3.33,1.63-1.07c.8-.52,1.69-.82,2.59-.86h0Z"/>
  <path class="st22" d="M33.95,27.05h0l.6,2.92v.78l-1.48.46-1.76.18-1.26-.09v-3.56l.59-.69h0c.72-.5,1.54-.73,2.37-.65l.19.02c.33.03.62.27.76.63h0Z"/>
  <path class="st2" d="M34.12,12.08l-.72,2.19-.15,1.17c.08.41.77,1.44,1.06,1.67l2.89,2.34c.26.21.58.31.89.29l1.56-.13,1.2-3.56-6.74-3.96h0Z"/>
  <polygon class="st5" points="34.12 12.08 33.4 14.27 33.26 15.44 29.89 16.04 28.18 16.04 26.12 14.79 24.84 13.07 25.06 10.47 29.22 10.87 31.87 11.35 34.12 12.08"/>
  <path class="st26" d="M30.55,16l-.35,3.71.35,3.35.83,2.98,2.49.34,3.96-1.43.06-.52c.1-.88.41-1.71.91-2.37l1.16-1.54-.29-1.22-2.55-.11c-.23-.01-.44-.1-.62-.26l-2.02-1.8c-.1-.09-.19-.19-.27-.3l-.95-1.38-2.71.55h0Z"/>
  <polygon class="st24" points="29.73 26.98 30.33 27.62 30.15 30.44 29.97 31.22 28.44 31.21 26.34 31.17 25.22 31 25.79 27.25 27.01 26.9 29.21 26.8 29.73 26.98"/>
  <polygon class="st25" points="25.27 26.59 25.79 27.32 25.33 30.09 25.07 30.84 23.55 30.6 21.48 30.24 20.38 29.9 21.33 26.27 22.58 26.11 24.77 26.34 25.27 26.59"/>
  <polygon class="st14" points="20.42 25.91 20.88 26.62 20.33 29.21 20.06 29.9 18.66 29.61 16.75 29.19 15.75 28.83 16.78 25.44 17.95 25.34 19.97 25.65 20.42 25.91"/>
  <polygon class="st13" points="15.94 24.96 16.32 25.63 15.75 28.15 15.48 28.83 14.23 28.62 12.52 28.3 11.63 28 12.66 24.68 13.72 24.53 15.53 24.73 15.94 24.96"/>
  <polygon class="st17" points="12.73 24.6 12.69 24.99 11.55 27.37 11.13 27.94 10.26 27.6 9.09 27.13 8.52 26.76 10.37 23.98 11.21 23.97 12.5 24.36 12.73 24.6"/>
  <polygon class="st15" points="10.68 24.04 9.91 24.59 9.06 25.89 8.58 26.19 7.94 25.54 7.07 24.63 7.3 23.19 8.16 22.15 9.56 22.85 10.54 23.73 10.68 24.04"/>
  <polygon class="st4" points="25.06 10.47 24.85 12.92 24.9 13.84 21.81 15.57 20.17 16.15 17.9 15.66 16.27 14.45 15.88 11.88 19.96 10.84 22.51 10.55 25.06 10.47"/>
  <path class="st18" d="M21.81,15.57l-.53,4.17-.13,1.91.17,4.61,2.39.05c.67.01,1.32.28,1.81.75l.27.26,2.04-.49c.43-.1.88-.1,1.31,0l.59.14.59.65.84-.94.22-.64-.69-2.45c-.1-.35-.17-.72-.21-1.08l-.22-2.09c-.05-.47-.05-.95,0-1.43l.28-3h-.58c-1.17.03-2.33-.28-3.33-.88l-.26-.16c-.18-.11-.35-.23-.51-.35l-.97-.76-3.09,1.72h.01Z"/>
  <path class="st19" d="M16.27,14.45l-2.04,1.71-.69,1.64c-.28.66-.45,1.35-.5,2.06l-.24,3.1-.07,1.47,1.68.22c.08.01.16.02.24.04l1.29.27.6.38,1.77.06,1.34.2.77.31.45.71.43-.9-.15-4.07.3-3.26.36-2.83-.92.33c-.47.17-.98.24-1.48.2h0c-.55-.04-1.09-.21-1.56-.51l-.25-.15-1.33-1h0v.02Z"/>
  <polygon class="st16" points="15.89 12 13.09 13.96 11.74 15.42 10.97 16.45 13.99 16.15 16.29 14.56 15.89 12"/>
  <ellipse class="st34" cx="47.58" cy="19.9" rx="1.03" ry=".92"/>
  <path class="st28" d="M51.97,18.86s0,.03.08.03.08-.04.08-.06,0,0-.08,0-.08.01-.08.03Z"/>
  <path class="st28" d="M51.12,19.13s-.04.06.04.06.15-.01.15-.03c0-.05-.07-.03-.15-.03s-.04-.02-.04,0Z"/>
  <path class="st10" d="M54.26,19.75l-.18.46c-.07.19-.17.37-.29.53h0c-.2.27-.57.34-.85.16l-.12-.08-.66-.45-.17.31c-.08.15-.18.29-.29.42h0c-.12.13-.27.23-.43.29h0c-.25.08-.51.07-.75-.02h0c-.27-.11-.51-.26-.72-.45l-.39-.36"/>
  <ellipse class="st34" cx="54.8" cy="17.96" rx=".79" ry=".72"/>
  <path class="st33" d="M54.14,21.92l-4.53,1.02c-.14.03-.52.04-.66.04h-.65c-.67,0-1.33.08-1.98.22l-1.11.25-1.43.61-.77.39c-.36.18-.7.39-1.01.63l-.55.42c-.58.44-1.11.95-1.58,1.52l-.68.83,3.64-2.33,2.31-1.35,3.29-.38,1.47-.18c.83-.1,1.64-.36,2.39-.74l1.85-.96h0Z"/>
  <polygon class="st0" points="30.67 16.95 30.67 19.02 30.99 20.89 31.4 22.42 32.05 24.05 32.77 25.64 33.01 26.35 31.58 26.12 30.67 23.76 30.4 21.65 30.4 19.04 30.67 16.95"/>
  <polygon class="st33" points="38.75 29.61 38.75 29.61 38.23 30.11 36.87 31.03 35.48 31.22 35.35 30.76 36.87 30.5 37.91 29.78 38.7 28.92 38.75 29.61"/>
  <polygon class="st3" points="39.21 33.93 38.28 32.89 35.63 30.68 35.08 30.95 37.04 32.33 38.32 35.1 39.37 35.28 40.65 35.59 39.21 33.93"/>
  <polygon class="st33" points="38.54 35.13 37.27 32.52 35.35 30.76 35.08 30.95 36.41 32.25 36.81 32.88 37.2 34.29 38.05 35.59 38.54 35.13"/>
  <path class="st33" d="M44.02,16.69l.06.91c.03.46.11.91.23,1.34l.03.1c.02.09.05.17.08.26l.16.47c.18.54.46,1.03.83,1.47l.58.69-1.46-1.12-.6-1.7.09-2.42h0Z"/>
  <g>
    <g>
      <path class="st35" d="M50.51,12.31c-.47.08-1.18.21-1.59.29s-1.01.22-1.34.33-1.03.34-1.55.5-1.22.34-1.55.39-.87.06-1.19.02-.8-.06-1.05-.04-1.22-.15-2.16-.39-1.18-.43-.54-.44,1.66-.43,2.26-.94,1.27-.93,1.47-.95.79-.07,1.3-.11,1.32-.21,1.8-.37,1.17-.44,1.54-.61.98-.34,1.37-.38l1.86-.15c.63-.05,1.53-.02,1.99.07s1.72.11,2.79.05.94.51-.29,1.27-2.7,1.36-3.26,1.34-1.41.03-1.88.11h.02Z"/>
      <path class="st9" d="M50.51,12.31c-.47.08-1.18.21-1.59.29s-1.01.22-1.34.33-1.03.34-1.55.5-1.22.34-1.55.39-.87.06-1.19.02-.8-.06-1.05-.04-1.22-.15-2.16-.39-1.18-.43-.54-.44,1.66-.43,2.26-.94,1.27-.93,1.47-.95.79-.07,1.3-.11,1.32-.21,1.8-.37,1.17-.44,1.54-.61.98-.34,1.37-.38l1.86-.15c.63-.05,1.53-.02,1.99.07s1.72.11,2.79.05.94.51-.29,1.27-2.7,1.36-3.26,1.34-1.41.03-1.88.11h.02Z"/>
    </g>
    <path class="st20" d="M42.46,4.58l1.87-.27,1.82.12s1.03.14,2.4,1.15c.15.11,2.12,2.25,2.12,2.25l1.72,2.3-3.23.79-3.85.51-2.33-.07,1.43-1.48.38-2.43-1.68-1-3.25-.38,1.41-1.06,1.19-.41h0v-.02Z"/>
  </g>
  <polygon class="st0" points="21.81 15.57 22.34 19.74 22.97 23.29 23.19 24.52 23.88 26.04 21.61 25.99 21.15 21.65 21.81 15.57"/>
  <polygon class="st0" points="16.27 14.82 14.86 16.74 14.4 18.24 14.27 19.74 14.27 21.95 14.66 23.42 15.53 24.73 12.97 23.97 12.97 21.92 13.06 19.54 13.39 18.15 14.09 16.48 15.12 15.57 16.27 14.82"/>
  <polygon class="st0" points="12.58 16.33 11.8 17.62 11.44 19.06 11.11 20.53 10.95 22.15 10.95 23.61 8.87 22.33 8.09 22.33 8.28 20.86 8.87 19.59 9.64 18.23 10.49 16.95 10.95 16.33 12.58 16.33"/>
  <polygon class="st40" points="40.29 6.1 43.04 5.71 44.55 6.1 45.65 6.95 45.65 7.41 45.65 8.54 45.09 9.38 44.55 10.33 43.77 11.37 43.23 11.09 44.41 9.86 44.7 8.54 44.78 7.43 43.66 6.76 43.1 6.43 42.23 6.33 40.29 6.1"/>
  <polygon class="st33" points="9.23 27.4 8.52 28.17 8.7 28.47 9.46 29.01 10.33 29.53 11.15 29.7 11.8 29.9 12.09 29.9 12.58 29.61 13.18 29.4 13.65 28.89 11.47 28.47 10.53 28.14 9.23 27.4"/>
  <polygon class="st33" points="6.84 23.97 6.87 24.83 7.07 25.34 7.32 25.82 7 25.95 6.22 26.19 5.63 26.27 4.55 26.19 4.2 26.11 3.71 25.97 3.27 25.6 4.27 25.7 5.14 25.7 5.87 25.38 6.48 24.53 6.84 23.97"/>
  <polygon class="st40" points="43.64 10.63 42.98 11.35 44.26 11.37 45.31 11.42 46.41 11.27 48 11.02 49.02 10.93 49.91 10.63 50.74 10.47 48.61 10.69 47.03 10.72 45.47 10.72 44.34 10.71 43.64 10.63"/>
  <polygon class="st33" points="53.48 12.63 51.75 12.9 50.74 13.1 49.26 13.38 47.97 13.38 46.94 13.7 45.56 14.01 44.82 14.15 44.16 14.32 43.93 14.32 44.21 13.91 45.09 13.72 45.98 13.44 46.65 13.24 47.29 13.03 47.94 12.94 48.57 12.73 49.13 12.56 50.27 12.42 51.16 12.35 52.05 12.25 52.64 12.2 53.48 12.63"/>
  <path class="st33" d="M47.09,22.88l-.26-.16c-.33-.2-.62-.47-.84-.79h0l-.26-.21c-.64-.53-1.16-1.2-1.5-1.96l-.3-.65-.36-1.06v.93l-.27.92-.13,1.03-.28,1-.25.87-.21.9-.21.64-.23.76,2.13-1,2.52-.96.78-.1-.34-.15h0Z"/>
  <polygon class="st0" points="7.98 22.85 8.2 23.68 8.7 24.37 9.37 25.22 8.82 26.19 7.92 25.71 7.47 25.22 6.96 24.66 7.07 23.89 7.14 23.45 7.98 22.85"/>
  <polygon class="st0" points="10.66 24.26 9.91 25.12 9.48 25.8 9 26.44 9 26.8 10.33 27.4 11.08 27.62 11.51 26.98 11.51 26.68 10.68 26.34 10.26 25.94 10.33 25.12 10.68 24.52 10.93 24.26 10.66 24.26"/>
  <path class="st36" d="M47.22,5.08c-.08-.03-.16.01-.17.09s.04.2.11.26.28.22.46.34.44.32.59.44.31.23.37.23.11-.05.11-.11-.1-.2-.22-.3-.29-.25-.37-.33-.23-.2-.32-.26-.22-.17-.29-.21-.2-.11-.28-.14h0Z"/>
  <polygon class="st40" points="45.88 7.86 46.56 8.45 47.58 8.54 46.94 8.68 45.88 8.68 45.34 8.68 44.72 8.79 45.1 7.86 45.88 7.86"/>
  <polygon class="st0" points="13.1 24.94 12.49 26.27 12.19 27.62 12.19 27.84 15.29 28.47 15.57 27.45 13.98 27.06 13.25 26.7 13.1 26.19 13.32 24.94 13.1 24.94"/>
  <polygon class="st0" points="17.49 25.71 17.56 27.03 17.83 27.62 18.99 28.1 20.1 28.47 19.82 29.46 18.17 29.1 17.04 28.83 16.24 28.6 16.78 26.8 17.06 25.84 17.49 25.71"/>
  <polygon class="st32" points="44.43 11.52 43.93 12.44 43.23 13.26 42.7 13.76 41.14 13.58 39.96 13.32 39.41 13.09 40.39 12.94 41.16 12.57 41.85 12.08 42.43 11.64 42.76 11.42 43.66 11.46 44.43 11.52"/>
  <polygon class="st0" points="22.21 26.56 22.21 28.28 23.09 28.71 25.05 29.21 24.83 30.39 22.8 30.08 20.88 29.73 21.3 27.97 21.63 26.62 22.21 26.56"/>
  <polygon class="st0" points="26.57 27.35 26.57 28.65 26.79 29.38 27.46 29.71 28.68 29.9 29.76 29.9 29.68 30.84 27.98 30.85 26.42 30.84 25.6 30.63 25.79 28.92 26.06 27.44 26.57 27.35"/>
  <polygon class="st33" points="44.34 14.15 44.08 14.93 43.44 16.19 43.02 16.91 42.56 16.53 43.07 16.04 43.35 15.51 43.66 14.8 43.93 14.32 44.34 14.15"/>
  <path class="st0" d="M13.98,13.55l-.5.69c-.1.13-.17.28-.22.43l-.29.89-.28.54-1.32.22,1.16-1.73,1.44-1.05h.01Z"/>
  <path class="st33" d="M9.51,30.01l-.4.38v.45l-.1.54v.37h.55l.75-.2.18.34.19.35.41-.2.43-.92.11-.48-.7.49-.25.17c-.3-.18-.46-.18-.81-.18l-.23-.07-.07-.14-.06-.9h0Z"/>
  <path class="st39" d="M37.45,14.95c.09-.05-.42-.46-1.14-.9s-1.31-.72-1.31-.62.12.26.26.35.44.27.65.39.61.37.88.55.56.28.65.22h0Z"/>
  <polygon class="st0" points="33.57 14.82 34.55 16.15 35.46 17.24 36.54 18.05 37.62 18.57 39.07 18.57 39.86 18.57 39.67 19.3 37.12 19.19 35.65 18.17 34.47 17.13 33.72 16.12 33.26 15.44 33.57 14.82"/>
  <polygon class="st0" points="25.07 12.55 26.27 13.91 27.68 14.82 29.2 15.05 30.4 15.05 31.38 14.82 32.06 14.82 32.71 14.65 33.16 14.56 33.08 15.18 31.55 15.5 30.2 15.74 28.87 15.65 27.69 15.37 26.39 14.67 25.53 14.03 25.06 13.63 25.07 12.55"/>
  <path class="st0" d="M31.08,26.04h-1.39l-1.24-.07c-.23-.01-.45,0-.68.02l-.78.08h-.1l-.46.02c-.26.01-.51-.02-.76-.09l-1.14-.34c-.19-.06-.37-.15-.53-.26l-.63-.46.5,1.1.44.09c.32.07.63.19.92.36l.36.22.27.28.96-.19,1.15-.32.74-.05.69.13.53.15.39.48.6-.64.15-.51h0Z"/>
  <polygon class="st0" points="30.87 27.45 30.87 28.65 31.08 29.9 32.43 30.07 33.18 30.07 34.11 29.85 34.18 30.47 33.21 30.76 32.5 30.85 31.31 31 30.45 31 30.62 29.01 30.71 27.62 30.87 27.45"/>
  <path class="st0" d="M16.32,13.76l.95.56.44.26c.4.24.84.39,1.3.44h0c.1.01.19.01.29,0l.28-.03c.34-.04.68-.12,1.01-.25l.78-.31,1.15-.54.74-.36.86-.3.74-.33.03.7-1,.53-.65.3-1.42.8-.66.32-.31.1c-.38.13-.77.19-1.17.19h-.24l-.15-.02c-.51-.07-1-.27-1.42-.57l-.12-.09-.91-.59-.43-.39-.08-.45h0v.03Z"/>
  <ellipse class="st39" cx="28.72" cy="16.76" rx=".22" ry=".67" transform="translate(4.9 39.96) rotate(-74.51)"/>
  <path class="st0" d="M13.08,15.2l.8.18c.06.01.12.02.18.02h.65l-.78.56-1.24.15.28-.54.12-.37h-.01Z"/>
  <path class="st0" d="M34.55,26.62l.29.88c.15.45.37.88.64,1.28l.16.24.48-.14c.5-.15.97-.38,1.39-.69l.07-.05c.18-.14.35-.29.51-.46l.33-.36c.07-.08.14-.17.21-.26l.31-.44.25.36-.65,1.3-.27.6-1.57.78-.51.19-1.22.08-.59-2.32-.23-.98.39-.02h.01Z"/>
  <polygon class="st33" points="45.09 26.72 45.67 27.31 46.61 27.82 46.96 27.89 47.15 27.92 47.78 28.47 47.87 28.57 47.11 28.49 46.58 28.47 46.28 28.41 46.19 28.38 46.32 28.6 46.41 29.05 46.47 29.31 46.49 29.45 45.91 29.26 45.46 29.11 45.15 28.98 45.09 28.89 44.5 27.72 44.16 27.43 44.93 26.3 45.09 26.72"/>
  <polygon class="st0" points="38.38 23.97 39.18 24.94 40 25.34 40.65 25.7 39.87 26.44 39.01 25.7 38.18 24.73 38.18 24.17 38.29 23.79 38.38 23.97"/>
  <polygon class="st0" points="42.56 20.52 41.66 20.16 40.86 19.74 40.53 19.31 40.35 19.12 40.18 19.59 40.44 20.29 41.37 20.74 42.3 21.22 42.56 20.52"/>
  <path class="st37" d="M47.07,24.03l-.85-.13c-.5-.08-.99-.21-1.46-.41l-.6-.25h0c-.02.53-.28,1.03-.7,1.35l-.06.05c-.4.31-.9.46-1.4.45h0l-1.55,1.3-1.26,1.47,2.03-1.3,1.01-.59.6-.44,1.67-1.01,1-.3,1.58-.18h0Z"/>
  <polygon class="st40" points="49.69 7.2 49.26 7.5 48.61 7.86 48.61 8.54 49.26 8.54 49.51 8.07 49.69 7.68 49.69 7.2"/>
  <polygon class="st40" points="50.01 9.57 47.72 9.38 46.15 9.68 45.65 10.06 47.26 10.31 49.4 10.02 50.01 9.57"/>
  <ellipse class="st29" cx="47.58" cy="16.12" rx="1.93" ry="1.97"/>
  <ellipse class="st38" cx="47.72" cy="15.07" rx=".69" ry=".52"/>
  <ellipse class="st38" cx="48.82" cy="16.53" rx=".44" ry=".34"/>
  <ellipse class="st38" cx="46.72" cy="16.53" rx=".22" ry=".17"/>
  <path class="st6" d="M47.97,17.68c.35-.05.53,0,.4.1s-.33.23-.45.28-.34.1-.49.1-.44-.07-.66-.16-.48-.31-.59-.47.1-.17.48-.03.96.22,1.31.18h0Z"/>
  <g>
    <ellipse class="st29" cx="53.33" cy="14.92" rx="1.7" ry="1.71"/>
    <ellipse class="st38" cx="53.45" cy="14.01" rx=".6" ry=".45"/>
    <ellipse class="st38" cx="54.42" cy="15.27" rx=".39" ry=".3"/>
    <ellipse class="st38" cx="52.57" cy="15.27" rx=".19" ry=".15"/>
    <path class="st6" d="M53.67,16.27c.31-.04.46,0,.35.09s-.29.2-.39.24-.3.08-.43.09-.39-.06-.58-.14-.42-.27-.52-.4.09-.15.42-.02.85.19,1.15.15h0Z"/>
  </g>
</svg>