<?xml version="1.0"?>
<!--?xml version="1.0" encoding="UTF-8"?-->
<svg id="Layer_1" xmlns="http://www.w3.org/2000/svg" xmlns:xlink="http://www.w3.org/1999/xlink" version="1.1" viewBox="0 0 262.35 164.71" width="262.3500061035156" height="164.7100067138672">
  <!-- Generator: Adobe Illustrator 29.4.0, SVG Export Plug-In . SVG Version: 2.1.0 Build 152)  -->
  <defs>
    <style>
      .st0 {
        stroke: url(#radial-gradient1);
      }

      .st0, .st1, .st2, .st3, .st4 {
        fill: none;
        stroke-miterlimit: 10;
      }

      .st0, .st1, .st4 {
        stroke-width: .66px;
      }

      .st5 {
        fill: url(#radial-gradient);
      }

      .st1 {
        stroke: #8e8d8d;
      }

      .st2 {
        stroke-width: .61px;
      }

      .st2, .st3, .st4 {
        stroke: #1b1919;
      }

      .st3 {
        stroke-width: .47px;
      }

      .st6 {
        fill: #997078;
      }

      .st7 {
        fill: #8e8d8d;
      }

      .st8 {
        fill: url(#radial-gradient2);
      }

      .st9 {
        fill: #b2b195;
      }

          /***************************************************
    * Generated by SVG Artista on 4/17/2025, 4:29:50 PM
    * MIT license (https://opensource.org/licenses/MIT)
    * W. https://svgartista.net
    **************************************************/

    svg .svg-elem-1 {
      stroke-dashoffset: 10.636947631835938px;
      stroke-dasharray: 10.636947631835938px;
      transition: stroke-dashoffset 1s cubic-bezier(0.47, 0, 0.745, 0.715) 0s,
                    fill 0.7s cubic-bezier(0.47, 0, 0.745, 0.715) 0.8s;
    }

    svg.active .svg-elem-1 {
      stroke-dashoffset: 0;
    }

    svg .svg-elem-2 {
      stroke-dashoffset: 7.964162349700928px;
      stroke-dasharray: 7.964162349700928px;
      transition: stroke-dashoffset 1s cubic-bezier(0.47, 0, 0.745, 0.715) 0.12s,
                    fill 0.7s cubic-bezier(0.47, 0, 0.745, 0.715) 0.9s;
    }

    svg.active .svg-elem-2 {
      stroke-dashoffset: 0;
    }

    svg .svg-elem-3 {
      stroke-dashoffset: 39.12556457519531px;
      stroke-dasharray: 39.12556457519531px;
      fill: transparent;
      transition: stroke-dashoffset 1s cubic-bezier(0.47, 0, 0.745, 0.715) 0.24s,
                    fill 0.7s cubic-bezier(0.47, 0, 0.745, 0.715) 1s;
    }

    svg.active .svg-elem-3 {
      stroke-dashoffset: 0;
      fill: rgb(142, 141, 141);
    }

    svg .svg-elem-4 {
      stroke-dashoffset: 39.12556457519531px;
      stroke-dasharray: 39.12556457519531px;
      transition: stroke-dashoffset 1s cubic-bezier(0.47, 0, 0.745, 0.715) 0.36s,
                    fill 0.7s cubic-bezier(0.47, 0, 0.745, 0.715) 1.1s;
    }

    svg.active .svg-elem-4 {
      stroke-dashoffset: 0;
    }

    svg .svg-elem-5 {
      stroke-dashoffset: 251.98606872558594px;
      stroke-dasharray: 251.98606872558594px;
      fill: transparent;
      transition: stroke-dashoffset 1s cubic-bezier(0.47, 0, 0.745, 0.715) 0.48s,
                    fill 0.7s cubic-bezier(0.47, 0, 0.745, 0.715) 1.2000000000000002s;
    }

    svg.active .svg-elem-5 {
      stroke-dashoffset: 0;
      fill: rgb(153, 112, 120);
    }

    svg .svg-elem-6 {
      stroke-dashoffset: 251.98606872558594px;
      stroke-dasharray: 251.98606872558594px;
      transition: stroke-dashoffset 1s cubic-bezier(0.47, 0, 0.745, 0.715) 0.6s,
                    fill 0.7s cubic-bezier(0.47, 0, 0.745, 0.715) 1.3s;
    }

    svg.active .svg-elem-6 {
      stroke-dashoffset: 0;
    }

    svg .svg-elem-7 {
      stroke-dashoffset: 34.8580436706543px;
      stroke-dasharray: 34.8580436706543px;
      fill: transparent;
      transition: stroke-dashoffset 1s cubic-bezier(0.47, 0, 0.745, 0.715) 0.72s,
                    fill 0.7s cubic-bezier(0.47, 0, 0.745, 0.715) 1.4000000000000001s;
    }

    svg.active .svg-elem-7 {
      stroke-dashoffset: 0;
      fill: rgb(178, 177, 149);
    }

    svg .svg-elem-8 {
      stroke-dashoffset: 34.8580436706543px;
      stroke-dasharray: 34.8580436706543px;
      transition: stroke-dashoffset 1s cubic-bezier(0.47, 0, 0.745, 0.715) 0.84s,
                    fill 0.7s cubic-bezier(0.47, 0, 0.745, 0.715) 1.5s;
    }

    svg.active .svg-elem-8 {
      stroke-dashoffset: 0;
    }

    svg .svg-elem-9 {
      stroke-dashoffset: 2px;
      stroke-dasharray: 2px;
      transition: stroke-dashoffset 1s cubic-bezier(0.47, 0, 0.745, 0.715) 0.96s,
                    fill 0.7s cubic-bezier(0.47, 0, 0.745, 0.715) 1.6s;
    }

    svg.active .svg-elem-9 {
      stroke-dashoffset: 0;
    }

    svg .svg-elem-10 {
      stroke-dashoffset: 17.155959129333496px;
      stroke-dasharray: 17.155959129333496px;
      transition: stroke-dashoffset 1s cubic-bezier(0.47, 0, 0.745, 0.715) 1.08s,
                    fill 0.7s cubic-bezier(0.47, 0, 0.745, 0.715) 1.7000000000000002s;
    }

    svg.active .svg-elem-10 {
      stroke-dashoffset: 0;
    }

    svg .svg-elem-11 {
      stroke-dashoffset: 281.4398193359375px;
      stroke-dasharray: 281.4398193359375px;
      fill: transparent;
      transition: stroke-dashoffset 1s cubic-bezier(0.47, 0, 0.745, 0.715) 1.2s,
                    fill 0.7s cubic-bezier(0.47, 0, 0.745, 0.715) 1.8s;
    }

    svg.active .svg-elem-11 {
      stroke-dashoffset: 0;
      fill: rgb(142, 141, 141);
    }

    svg .svg-elem-12 {
      stroke-dashoffset: 281.4398193359375px;
      stroke-dasharray: 281.4398193359375px;
      transition: stroke-dashoffset 1s cubic-bezier(0.47, 0, 0.745, 0.715) 1.3199999999999998s,
                    fill 0.7s cubic-bezier(0.47, 0, 0.745, 0.715) 1.9000000000000001s;
    }

    svg.active .svg-elem-12 {
      stroke-dashoffset: 0;
    }

    svg .svg-elem-13 {
      stroke-dashoffset: 2px;
      stroke-dasharray: 2px;
      transition: stroke-dashoffset 1s cubic-bezier(0.47, 0, 0.745, 0.715) 1.44s,
                    fill 0.7s cubic-bezier(0.47, 0, 0.745, 0.715) 2s;
    }

    svg.active .svg-elem-13 {
      stroke-dashoffset: 0;
    }

    svg .svg-elem-14 {
      stroke-dashoffset: 56.04393005371094px;
      stroke-dasharray: 56.04393005371094px;
      fill: transparent;
      transition: stroke-dashoffset 1s cubic-bezier(0.47, 0, 0.745, 0.715) 1.56s,
                    fill 0.7s cubic-bezier(0.47, 0, 0.745, 0.715) 2.1s;
    }

    svg.active .svg-elem-14 {
      stroke-dashoffset: 0;
      fill: rgb(178, 177, 149);
    }

    svg .svg-elem-15 {
      stroke-dashoffset: 56.04393005371094px;
      stroke-dasharray: 56.04393005371094px;
      transition: stroke-dashoffset 1s cubic-bezier(0.47, 0, 0.745, 0.715) 1.68s,
                    fill 0.7s cubic-bezier(0.47, 0, 0.745, 0.715) 2.2s;
    }

    svg.active .svg-elem-15 {
      stroke-dashoffset: 0;
    }

    svg .svg-elem-16 {
      stroke-dashoffset: 20.426668167114258px;
      stroke-dasharray: 20.426668167114258px;
      transition: stroke-dashoffset 1s cubic-bezier(0.47, 0, 0.745, 0.715) 1.7999999999999998s,
                    fill 0.7s cubic-bezier(0.47, 0, 0.745, 0.715) 2.3s;
    }

    svg.active .svg-elem-16 {
      stroke-dashoffset: 0;
    }

    svg .svg-elem-17 {
      stroke-dashoffset: 15.862488746643066px;
      stroke-dasharray: 15.862488746643066px;
      transition: stroke-dashoffset 1s cubic-bezier(0.47, 0, 0.745, 0.715) 1.92s,
                    fill 0.7s cubic-bezier(0.47, 0, 0.745, 0.715) 2.4000000000000004s;
    }

    svg.active .svg-elem-17 {
      stroke-dashoffset: 0;
    }

    svg .svg-elem-18 {
      stroke-dashoffset: 61.922874450683594px;
      stroke-dasharray: 61.922874450683594px;
      fill: transparent;
      transition: stroke-dashoffset 1s cubic-bezier(0.47, 0, 0.745, 0.715) 2.04s,
                    fill 0.7s cubic-bezier(0.47, 0, 0.745, 0.715) 2.5s;
    }

    svg.active .svg-elem-18 {
      stroke-dashoffset: 0;
      fill: rgb(142, 141, 141);
    }

    svg .svg-elem-19 {
      stroke-dashoffset: 61.922874450683594px;
      stroke-dasharray: 61.922874450683594px;
      transition: stroke-dashoffset 1s cubic-bezier(0.47, 0, 0.745, 0.715) 2.16s,
                    fill 0.7s cubic-bezier(0.47, 0, 0.745, 0.715) 2.6s;
    }

    svg.active .svg-elem-19 {
      stroke-dashoffset: 0;
    }

    svg .svg-elem-20 {
      stroke-dashoffset: 56.143943786621094px;
      stroke-dasharray: 56.143943786621094px;
      fill: transparent;
      transition: stroke-dashoffset 1s cubic-bezier(0.47, 0, 0.745, 0.715) 2.28s,
                    fill 0.7s cubic-bezier(0.47, 0, 0.745, 0.715) 2.7s;
    }

    svg.active .svg-elem-20 {
      stroke-dashoffset: 0;
      fill: rgb(142, 141, 141);
    }

    svg .svg-elem-21 {
      stroke-dashoffset: 56.143943786621094px;
      stroke-dasharray: 56.143943786621094px;
      transition: stroke-dashoffset 1s cubic-bezier(0.47, 0, 0.745, 0.715) 2.4s,
                    fill 0.7s cubic-bezier(0.47, 0, 0.745, 0.715) 2.8s;
    }

    svg.active .svg-elem-21 {
      stroke-dashoffset: 0;
    }

    svg .svg-elem-22 {
      stroke-dashoffset: 17.95863437652588px;
      stroke-dasharray: 17.95863437652588px;
      fill: transparent;
      transition: stroke-dashoffset 1s cubic-bezier(0.47, 0, 0.745, 0.715) 2.52s,
                    fill 0.7s cubic-bezier(0.47, 0, 0.745, 0.715) 2.9000000000000004s;
    }

    svg.active .svg-elem-22 {
      stroke-dashoffset: 0;
      fill: url("#radial-gradient");
    }

    svg .svg-elem-23 {
      stroke-dashoffset: 17.95863437652588px;
      stroke-dasharray: 17.95863437652588px;
      transition: stroke-dashoffset 1s cubic-bezier(0.47, 0, 0.745, 0.715) 2.6399999999999997s,
                    fill 0.7s cubic-bezier(0.47, 0, 0.745, 0.715) 3s;
    }

    svg.active .svg-elem-23 {
      stroke-dashoffset: 0;
    }

    svg .svg-elem-24 {
      stroke-dashoffset: 4.261946710584651px;
      stroke-dasharray: 4.261946710584651px;
      fill: transparent;
      transition: stroke-dashoffset 1s cubic-bezier(0.47, 0, 0.745, 0.715) 2.76s,
                    fill 0.7s cubic-bezier(0.47, 0, 0.745, 0.715) 3.1000000000000005s;
    }

    svg.active .svg-elem-24 {
      stroke-dashoffset: 0;
      fill: url("#radial-gradient2");
    }

    svg .svg-elem-25 {
      stroke-dashoffset: 56.640281677246094px;
      stroke-dasharray: 56.640281677246094px;
      transition: stroke-dashoffset 1s cubic-bezier(0.47, 0, 0.745, 0.715) 2.88s,
                    fill 0.7s cubic-bezier(0.47, 0, 0.745, 0.715) 3.2s;
    }

    svg.active .svg-elem-25 {
      stroke-dashoffset: 0;
    }

    </style>
    <radialGradient id="radial-gradient" cx="88.64" cy="80.36" fx="88.64" fy="80.36" r="2.54" gradientUnits="userSpaceOnUse">
      <stop offset="0" stop-color="#fff"></stop>
      <stop offset=".22" stop-color="#b2b2b2"></stop>
      <stop offset=".43" stop-color="#737373"></stop>
      <stop offset=".62" stop-color="#414141"></stop>
      <stop offset=".78" stop-color="#1d1d1d"></stop>
      <stop offset=".91" stop-color="#070707"></stop>
      <stop offset="1" stop-color="#000"></stop>
    </radialGradient>
    <radialGradient id="radial-gradient1" cx="88.64" cy="80.36" fx="88.64" fy="80.36" r="2.87" gradientUnits="userSpaceOnUse">
      <stop offset="0" stop-color="#fff"></stop>
      <stop offset="1" stop-color="#000"></stop>
    </radialGradient>
    <radialGradient id="radial-gradient2" cx="90.07" cy="79.18" fx="90.07" fy="79.18" r=".36" gradientUnits="userSpaceOnUse">
      <stop offset=".37" stop-color="#fff"></stop>
      <stop offset=".51" stop-color="#b2b2b2"></stop>
      <stop offset=".64" stop-color="#737373"></stop>
      <stop offset=".76" stop-color="#414141"></stop>
      <stop offset=".86" stop-color="#1d1d1d"></stop>
      <stop offset=".95" stop-color="#070707"></stop>
      <stop offset="1" stop-color="#000"></stop>
    </radialGradient>
  </defs>
  <path class="st4 svg-elem-1" d="M68.89,94.88c-2.3.21-6.2-1.61-7.9-3.08"></path>
  <path class="st4 svg-elem-2" d="M69.55,93.34c-1.14-.19-4.63-1.64-5.27-2.63"></path>
  <g>
    <path class="st7 svg-elem-3" d="M98.82,85.8l-.29,1.73c-.16.95-.46,2.62-.67,3.72s-1.74,2.79-3.41,3.77-2.1,1.52-.95,1.19,1.31-.15.37.4-.89.84.12.65,1.27.05.58.55-.29.47.89-.05,1.57-.4.86.28-.13.48,1.29-.45,2.93-2.48,3.36-3.47,1.25-2.95,1.81-4.36l1.02-2.57"></path>
    <path class="st3 svg-elem-4" d="M98.82,85.8l-.29,1.73c-.16.95-.46,2.62-.67,3.72s-1.74,2.79-3.41,3.77-2.1,1.52-.95,1.19,1.31-.15.37.4-.89.84.12.65,1.27.05.58.55-.29.47.89-.05,1.57-.4.86.28-.13.48,1.29-.45,2.93-2.48,3.36-3.47,1.25-2.95,1.81-4.36l1.02-2.57"></path>
  </g>
  <g>
    <path class="st6 svg-elem-5" d="M178.37,77.22c.96-1.54,4.36-1.39,7.55.32l5.76,3.08c3.19,1.71,6.2,5.11,6.68,7.55s-.7,6.95-2.64,10.02l-3.84,6.09c-1.93,3.06-6.34,6.45-9.8,7.53l-8.61,2.68c-3.46,1.08-9.23,2.32-12.83,2.76l-20.94,2.57c-3.6.44-9.44.2-12.98-.55l-9.17-1.92c-3.55-.74-7.8-1.89-9.46-2.55s-.06-1.01,3.56-.77l3.32.22c3.61.24,9.19.83,12.39,1.32s8.75.45,12.33-.08l19.89-2.92c3.58-.53,9.35-1.83,12.81-2.89l7.39-2.27c3.46-1.07,7.85-4.46,9.75-7.55l1-1.62c1.9-3.08,3.21-7.31,2.9-9.4s-3.38-4.66-6.84-5.73l-3.67-1.14c-3.46-1.07-5.51-3.2-4.55-4.74Z"></path>
    <path class="st4 svg-elem-6" d="M178.37,77.22c.96-1.54,4.36-1.39,7.55.32l5.76,3.08c3.19,1.71,6.2,5.11,6.68,7.55s-.7,6.95-2.64,10.02l-3.84,6.09c-1.93,3.06-6.34,6.45-9.8,7.53l-8.61,2.68c-3.46,1.08-9.23,2.32-12.83,2.76l-20.94,2.57c-3.6.44-9.44.2-12.98-.55l-9.17-1.92c-3.55-.74-7.8-1.89-9.46-2.55s-.06-1.01,3.56-.77l3.32.22c3.61.24,9.19.83,12.39,1.32s8.75.45,12.33-.08l19.89-2.92c3.58-.53,9.35-1.83,12.81-2.89l7.39-2.27c3.46-1.07,7.85-4.46,9.75-7.55l1-1.62c1.9-3.08,3.21-7.31,2.9-9.4s-3.38-4.66-6.84-5.73l-3.67-1.14c-3.46-1.07-5.51-3.2-4.55-4.74Z"></path>
  </g>
  <g>
    <path class="st9 svg-elem-7" d="M78.31,72.49l-2.31-4.17c-1.27-2.29-1.61-5.9-.77-8.01s2.98-4.83,4.75-6.04,4.39-.22,5.82,2.2l2.6,4.39"></path>
    <path class="st4 svg-elem-8" d="M78.31,72.49l-2.31-4.17c-1.27-2.29-1.61-5.9-.77-8.01s2.98-4.83,4.75-6.04,4.39-.22,5.82,2.2l2.6,4.39"></path>
  </g>
  <path class="st4 svg-elem-9" d="M126.17,66.13"></path>
  <path class="st4 svg-elem-10" d="M75.89,97.52c.27,2.1,5.98,3.82,7.94,5.03,1.5.93,3.31,1.96,4.58,3.09"></path>
  <g>
    <path class="st7 svg-elem-11" d="M91.49,58.88l-3.08,1.98c-1.69,1.09-4.17,3.26-5.49,4.83s-3.55,5.03-4.94,7.68-3.07,6.46-3.73,8.45-2.54,5.85-4.17,8.56-2.67,6.17-2.3,7.68,1.2,3.04,1.86,3.4,1.9.66,2.74.66,4.11-.99,7.25-2.19,7.34-3.28,9.33-4.61,5.89-2.46,8.67-2.53,6.97.39,9.32,1,6.62,1.43,9.49,1.82,5.84.98,6.6,1.31,3.51.71,6.1.85,7.09,0,9.99-.33,7.84-1.03,10.98-1.58c3.14-.54,8.56-1.79,12.05-2.76l2.21-.62c3.49-.98,8.09-2.27,10.24-2.87s5.13-2.68,6.63-4.61,2.74-4.95,2.74-6.71-.99-5.03-2.2-7.27-3.45-5.13-4.97-6.41-5.38-3.74-8.56-5.47l-1.14-.62c-3.19-1.72-8.71-3.68-12.27-4.34l-4.89-.91c-3.56-.66-9.44-1.21-13.06-1.21h-.56c-3.62,0-9.55.16-13.16.34l-3.46.18c-3.62.19-9.44,1.13-12.93,2.09l-15.26,4.19"></path>
    <path class="st4 svg-elem-12" d="M91.49,58.88l-3.08,1.98c-1.69,1.09-4.17,3.26-5.49,4.83s-3.55,5.03-4.94,7.68-3.07,6.46-3.73,8.45-2.54,5.85-4.17,8.56-2.67,6.17-2.3,7.68,1.2,3.04,1.86,3.4,1.9.66,2.74.66,4.11-.99,7.25-2.19,7.34-3.28,9.33-4.61,5.89-2.46,8.67-2.53,6.97.39,9.32,1,6.62,1.43,9.49,1.82,5.84.98,6.6,1.31,3.51.71,6.1.85,7.09,0,9.99-.33,7.84-1.03,10.98-1.58c3.14-.54,8.56-1.79,12.05-2.76l2.21-.62c3.49-.98,8.09-2.27,10.24-2.87s5.13-2.68,6.63-4.61,2.74-4.95,2.74-6.71-.99-5.03-2.2-7.27-3.45-5.13-4.97-6.41-5.38-3.74-8.56-5.47l-1.14-.62c-3.19-1.72-8.71-3.68-12.27-4.34l-4.89-.91c-3.56-.66-9.44-1.21-13.06-1.21h-.56c-3.62,0-9.55.16-13.16.34l-3.46.18c-3.62.19-9.44,1.13-12.93,2.09l-15.26,4.19"></path>
  </g>
  <path class="st4 svg-elem-13" d="M133.85,109.81"></path>
  <g>
    <path class="st9 svg-elem-14" d="M96.82,66.42l3.2-4.66c1.76-2.56,5.9-4.82,9.2-5.03s7.1,1.13,8.46,2.96,2.8,4.81,3.22,6.63-.96,4.62-3.07,6.24-5.8,3.41-8.21,3.96l-4.39,1.01"></path>
    <path class="st2 svg-elem-15" d="M96.82,66.42l3.2-4.66c1.76-2.56,5.9-4.82,9.2-5.03s7.1,1.13,8.46,2.96,2.8,4.81,3.22,6.63-.96,4.62-3.07,6.24-5.8,3.41-8.21,3.96l-4.39,1.01"></path>
  </g>
  <path class="st4 svg-elem-16" d="M72.82,98.83c3.03,1.47,5.71,4.3,8.39,6.35,1.98,1.51,3.93,3.8,6.32,4.63"></path>
  <path class="st4 svg-elem-17" d="M78.31,96.64c2.92.36,5.98,2.54,8.79,3.68,1.33.54,2.92.58,3.94,1.59"></path>
  <g>
    <path class="st7 svg-elem-18" d="M171.83,90.52l-.68,1.66c-.37.91-1.03,2.75-1.45,4.09s-3.52,3.08-6.87,3.88-3.75.52-.88-.59,2.31-1.09-1.22.07l-1.25.41c-3.53,1.16-3.72.71-.41-.98l.11-.06c3.31-1.7,3.25-1.81-.12-.25l-2.16,1c-3.37,1.56-5.24,1.99-4.14.96s3.81-2.87,6.04-4.1,4.27-2.92,4.54-3.78l.5-1.55"></path>
    <path class="st4 svg-elem-19" d="M171.83,90.52l-.68,1.66c-.37.91-1.03,2.75-1.45,4.09s-3.52,3.08-6.87,3.88-3.75.52-.88-.59,2.31-1.09-1.22.07l-1.25.41c-3.53,1.16-3.72.71-.41-.98l.11-.06c3.31-1.7,3.25-1.81-.12-.25l-2.16,1c-3.37,1.56-5.24,1.99-4.14.96s3.81-2.87,6.04-4.1,4.27-2.92,4.54-3.78l.5-1.55"></path>
  </g>
  <g>
    <path class="st7 svg-elem-20" d="M113.81,90.71l-.53,1.92c-.29,1.06-.84,2.91-1.21,4.12s-3.14,3.09-6.16,4.18-3.79,1.68-1.72,1.32,2.37-.17.66.44-1.61.93.22.72,2.06.06.53.61-.81.52,1.61-.06,3.36-.44,2.08.31-.23.53,2.33-.49,5.29-2.75,6.08-3.84,2.25-3.26,3.27-4.83l1.85-2.84"></path>
    <path class="st4 svg-elem-21" d="M113.81,90.71l-.53,1.92c-.29,1.06-.84,2.91-1.21,4.12s-3.14,3.09-6.16,4.18-3.79,1.68-1.72,1.32,2.37-.17.66.44-1.61.93.22.72,2.06.06.53.61-.81.52,1.61-.06,3.36-.44,2.08.31-.23.53,2.33-.49,5.29-2.75,6.08-3.84,2.25-3.26,3.27-4.83l1.85-2.84"></path>
  </g>
  <g>
    <g>
      <path class="st5 svg-elem-22" d="M91.18,80.36c0,1.4-1.14,2.54-2.54,2.54s-2.54-1.14-2.54-2.54,1.14-2.54,2.54-2.54,2.54,1.13,2.54,2.54Z"></path>
      <path class="st0 svg-elem-23" d="M91.18,80.36c0,1.4-1.14,2.54-2.54,2.54s-2.54-1.14-2.54-2.54,1.14-2.54,2.54-2.54,2.54,1.13,2.54,2.54Z"></path>
    </g>
    <circle class="st8 svg-elem-24" cx="90.07" cy="79.18" r=".36"></circle>
  </g>
  <path class="st1 svg-elem-25" d="M96.76,67.14l1.32-.45-.7,1.3,1.03-.48c-.18.38-.36.76-.54,1.14l1.49-.64c-.45.33-.82.76-1.08,1.25.26-.1.52-.2.79-.3l-.46.78c.28-.07.55-.14.83-.21-.08.19-.15.38-.23.57l1.32-.29-.19.34c.31-.02.63-.05.94-.07l-.75.77.98-.56c-.59.45-1.17.9-1.76,1.36.38-.76.84-1.49,1.37-2.15-.69.52-1.39,1.02-2.12,1.5.7-.39,1.44-.71,2.2-.93l-.64,1.27.35-.3c-.12.29-.24.58-.36.87.46-.16.95-.22,1.43-.19-.23.36-.47.71-.7,1.07.26-.21.56-.37.88-.49-.3.18-.5.52-.52.87l1.35-.29c-.23.29-.45.58-.68.87l.57-.2c-.4.26-.77.58-1.08.94.77-.23,1.56-.38,2.36-.43l-1.77,1.13,2.07-.91-.88.98.4-.17-.92.96,1.31-.51-.43.58c.09-.08.25.03.25.15s-.09.23-.17.31c.29-.05.58-.1.86-.15-.13.1-.23.23-.28.38.16.02.31.04.47.06-.25.17-.35.53-.21.8.21-.02.42-.05.64-.07"></path>


<script type="application/ecmascript"><![CDATA[
  const svg = document.documentElement;
  svg.style.cursor = 'pointer'; // make cursor a pointer

  svg.addEventListener('click', () => {
    svg.classList.toggle('active');
  });
]]></script>

</svg>